# xmcd CD database file
#
# Track frame offsets:
#	183
#	26000
#	48870
#	68393
#	95185
#	114738
#	136970
#	155905
#	191420
#	207868
#	215765
#
# Disc length: 3239 seconds
#
# Revision: 3
# Processed by: cddbd v1.5.2PL0 Copyright (c) Steve Scherf et al.
# Submitted via: CDex 1.51
#
DISCID=a10ca50b
DTITLE=Walter Trout - Prisoner Of A Dream
DYEAR=1990
DGENRE=Blues Rock
TTITLE0=Prisoner Of A Dream
TTITLE1=The Love That We Once Knew
TTITLE2=Sweet As A Flower
TTITLE3=Love In Vain
TTITLE4=Victor The Cajun
TTITLE5=Girl From The North Country
TTITLE6=False Alarm
TTITLE7=Say Goodbye To The Blues
TTITLE8=You're The One
TTITLE9=Earrings On The Table
TTITLE10=Tribute To Muddy Waters
EXTD=YEAR: 1990
EXTT0=
EXTT1=
EXTT2=
EXTT3=
EXTT4=
EXTT5=
EXTT6=
EXTT7=
EXTT8=
EXTT9=
EXTT10=
PLAYORDER=
